<svg xmlns="http://www.w3.org/2000/svg" viewBox="0 0 1024 1024" fill="currentColor"><path d="M417.002 172.983c9.36-40.758 18.666-81.1 27.95-121.447 1.996-8.677 4.033-10.375 12.996-10.378q55.74-.023 111.48.002c8.615.004 10.718 1.75 12.65 10.152 27.886 121.204 55.8 242.4 83.548 363.636.84 3.672 2.283 4.396 5.615 4.302 6.324-.179 12.663-.002 18.992.153 15.72.385 28.746 13.471 24.868 30.43-5.524 24.155-10.283 48.52-16.86 72.385-3.738 13.561-2.42 26.081.937 39.123 3.812 14.809 7.01 29.776 10.459 44.677 1.928 8.333-.2 10.955-8.917 10.979-7.824.021-15.65.004-23.839.004-2.175 9.128-4.385 18.136-6.466 27.173-8.06 35.014-16.087 70.037-24.115 105.058-14.418 62.9-28.815 125.805-43.251 188.7-2.565 11.178-5.36 22.303-7.9 33.486-3.443 15.167-12.462 22.808-29.895 23.06-34.485.502-68.988.49-103.473.008-17.874-.25-26.48-7.947-30.014-23.502-6.153-27.082-12.49-54.121-18.71-81.188-13.187-57.383-26.323-114.778-39.53-172.156-7.384-32.084-14.866-64.145-22.312-96.215-.333-1.436-.74-2.855-1.15-4.424-7.912 0-15.57.01-23.227-.002-9.561-.015-11.362-2.383-9.173-11.946 4.49-19.612 9.273-39.166 13.239-58.884 1.061-5.276.356-11.221-.816-16.58-5.829-26.641-12.048-53.198-18.204-79.767-3.75-16.186 8.535-30.227 24.855-30.417 7.797-.09 15.596-.015 23.566-.015 18.972-82.4 37.804-164.197 56.697-246.407m-28.689 495.142c3.26 14.092 6.536 28.182 9.78 42.278q21.519 93.53 43.024 187.06c5.103 22.189 10.175 44.384 15.326 66.561.486 2.093.438 4.456 4.047 4.442 35.329-.143 70.658-.052 105.987-.229 1.25-.006 3.21-1.907 3.61-3.282 1.852-6.368 3.34-12.845 4.83-19.313q21.54-93.52 43.031-187.05c8.71-37.903 17.38-75.815 26.077-113.72 2.103-9.167 4.247-18.324 6.462-27.872-16.739 0-32.89.021-49.04-.009-7.898-.015-9.886-1.566-11.632-9.335-5.455-24.267-10.84-48.55-16.36-73.305-.525 1.448-1.044 2.484-1.28 3.581-8.798 40.992-17.537 81.996-26.355 122.983-7.976 37.075-16.054 74.128-24.032 111.203-1.06 4.928-2.438 9.647-8.297 10.38-3.942.495-6.913-3.46-8.51-10.72-4.177-19.006-8.272-38.03-12.405-57.044-8.658-39.824-17.344-79.643-25.967-119.474-4.324-19.973-8.534-39.97-12.95-60.677-.715 1.582-1.294 2.432-1.491 3.363-4.83 22.754-9.589 45.523-14.43 68.274-1.992 9.36-3.869 10.776-13.609 10.779-15.65.005-31.3.001-47.54.001 3.895 17.059 7.693 33.69 11.724 51.125M540.07 564.62c.15-.476.34-.942.447-1.428 6.423-29.214 12.874-58.423 19.185-87.662.434-2.013.1-4.31-.341-6.375-8.391-39.204-16.881-78.386-25.29-117.586-6.81-31.737-13.54-63.49-20.539-96.333-4.672 21.224-9.143 41.323-13.516 61.444-9.913 45.613-19.855 91.22-29.582 136.872-1.572 7.376-4.22 15.41-2.782 22.402 13.431 65.292 27.64 130.424 41.648 195.597 1.147 5.338 2.477 10.636 3.723 15.953 2.135-6.482 3.512-12.808 4.873-19.138 7.372-34.304 14.74-68.608 22.174-103.746M350.101 463.755l4.134-17.934H337.09l8.254 35.158.767.007a1625 1625 0 0 0 3.99-17.23m329.113 10.511 2.203 7.843 8.518-36.504h-17.174c2.143 9.477 4.221 18.67 6.453 28.661"/><path d="M789.981 717V287.003H738.37V245.4h102.07v537.312H738.33v-41.177h51.652z"/><path d="M953.703 475V287.073h-51.688v-41.59h101.912v537.269H901.963V741.39h51.74z"/><path d="M236.019 400v345.288h51.722v33.448h-102.3V249.504h102.346v41.256H236.02z"/><path d="M72.302 381v364.374h51.811v33.308H21.9V249.456h102.093v41.25H72.302z"/></svg>
